<svg xmlns="http://www.w3.org/2000/svg" xmlns:xlink="http://www.w3.org/1999/xlink" width="500" zoomAndPan="magnify" viewBox="0 0 375 374.999991" height="500" preserveAspectRatio="xMidYMid meet" version="1.0"><defs><clipPath id="eaeb6a6a78"><path d="M 63.171875 59.890625 L 311.828125 59.890625 L 311.828125 311 L 63.171875 311 Z M 63.171875 59.890625 " clip-rule="nonzero"/></clipPath><clipPath id="04037f52f6"><path d="M 80.421875 59.890625 L 294.578125 59.890625 C 299.152344 59.890625 303.539062 61.707031 306.773438 64.941406 C 310.007812 68.175781 311.828125 72.5625 311.828125 77.140625 L 311.828125 293.371094 C 311.828125 297.945312 310.007812 302.335938 306.773438 305.570312 C 303.539062 308.804688 299.152344 310.621094 294.578125 310.621094 L 80.421875 310.621094 C 75.847656 310.621094 71.460938 308.804688 68.226562 305.570312 C 64.992188 302.335938 63.171875 297.945312 63.171875 293.371094 L 63.171875 77.140625 C 63.171875 72.5625 64.992188 68.175781 68.226562 64.941406 C 71.460938 61.707031 75.847656 59.890625 80.421875 59.890625 Z M 80.421875 59.890625 " clip-rule="nonzero"/></clipPath><clipPath id="800619168d"><path d="M 0.171875 0.890625 L 248.828125 0.890625 L 248.828125 251.800781 L 0.171875 251.800781 Z M 0.171875 0.890625 " clip-rule="nonzero"/></clipPath><clipPath id="1f23019baf"><path d="M 17.421875 0.890625 L 231.578125 0.890625 C 236.152344 0.890625 240.539062 2.707031 243.773438 5.941406 C 247.007812 9.175781 248.828125 13.5625 248.828125 18.140625 L 248.828125 234.371094 C 248.828125 238.945312 247.007812 243.335938 243.773438 246.570312 C 240.539062 249.804688 236.152344 251.621094 231.578125 251.621094 L 17.421875 251.621094 C 12.847656 251.621094 8.460938 249.804688 5.226562 246.570312 C 1.992188 243.335938 0.171875 238.945312 0.171875 234.371094 L 0.171875 18.140625 C 0.171875 13.5625 1.992188 9.175781 5.226562 5.941406 C 8.460938 2.707031 12.847656 0.890625 17.421875 0.890625 Z M 17.421875 0.890625 " clip-rule="nonzero"/></clipPath><clipPath id="a96ff364fa"><rect x="0" width="249" y="0" height="252"/></clipPath><clipPath id="79c85fccac"><path d="M 1.824219 27.613281 L 374.675781 27.613281 L 374.675781 347.113281 L 1.824219 347.113281 Z M 1.824219 27.613281 " clip-rule="nonzero"/></clipPath><clipPath id="96a5f30a98"><path d="M 8 27.613281 L 359.699219 27.613281 L 359.699219 347.113281 L 8 347.113281 Z M 8 27.613281 " clip-rule="nonzero"/></clipPath><clipPath id="6dbc0a54cc"><path d="M 16.925781 40.640625 L 354.15625 40.640625 L 354.15625 329.84375 L 16.925781 329.84375 Z M 16.925781 40.640625 " clip-rule="nonzero"/></clipPath><clipPath id="e6822b6a6b"><path d="M 22.34375 40.640625 L 340.613281 40.640625 L 340.613281 329.84375 L 22.34375 329.84375 Z M 22.34375 40.640625 " clip-rule="nonzero"/></clipPath><clipPath id="da59dfd2bd"><path d="M 15.277344 153 L 143 153 L 143 210 L 15.277344 210 Z M 15.277344 153 " clip-rule="nonzero"/></clipPath></defs><g clip-path="url(#eaeb6a6a78)"><g clip-path="url(#04037f52f6)"><g transform="matrix(1, 0, 0, 1, 63, 59)"><g clip-path="url(#a96ff364fa)"><g clip-path="url(#800619168d)"><g clip-path="url(#1f23019baf)"><path fill="#00a0b8" d="M 0.171875 0.890625 L 248.828125 0.890625 L 248.828125 251.484375 L 0.171875 251.484375 Z M 0.171875 0.890625 " fill-opacity="1" fill-rule="nonzero"/></g></g></g></g></g></g><g clip-path="url(#79c85fccac)"><path fill="#00a0b8" d="M 351.273438 51.007812 L 343.476562 51.007812 L 343.476562 58.808594 L 351.273438 58.808594 Z M 265.484375 347.367188 L 265.484375 339.574219 L 257.691406 339.574219 L 257.691406 347.367188 Z M 242.089844 347.367188 L 249.886719 347.367188 L 249.886719 339.574219 L 242.089844 339.574219 Z M 281.085938 339.574219 L 281.085938 331.765625 L 273.289062 331.765625 L 273.289062 339.574219 Z M 226.492188 214.78125 L 226.492188 206.988281 L 218.695312 206.988281 L 218.695312 214.78125 Z M 265.484375 292.773438 L 257.691406 292.773438 L 257.691406 300.574219 L 265.484375 300.574219 Z M 242.089844 199.191406 L 242.089844 191.390625 L 234.292969 191.390625 L 234.292969 199.191406 Z M 366.871094 58.808594 L 366.871094 66.605469 L 374.675781 66.605469 L 374.675781 58.808594 Z M 343.476562 58.808594 L 335.679688 58.808594 L 335.679688 66.605469 L 343.476562 66.605469 Z M 359.074219 74.40625 L 366.871094 74.40625 L 366.871094 66.605469 L 359.074219 66.605469 Z M 335.679688 66.605469 L 327.875 66.605469 L 327.875 74.40625 L 335.679688 74.40625 Z M 249.886719 339.574219 L 257.691406 339.574219 L 257.691406 331.765625 L 249.886719 331.765625 Z M 343.476562 74.40625 L 343.476562 82.207031 L 359.074219 82.207031 L 359.074219 74.40625 Z M 327.875 82.207031 L 327.875 90.003906 L 329.371094 90.003906 L 329.371094 91.5 L 327.875 91.5 L 327.875 90.003906 L 320.082031 90.003906 L 320.082031 82.207031 L 327.875 82.207031 L 327.875 74.40625 L 318.582031 74.40625 L 318.582031 60.308594 L 313.773438 60.308594 L 313.773438 74.40625 L 312.277344 74.40625 L 312.277344 82.207031 L 296.683594 82.207031 L 296.683594 90.003906 L 288.882812 90.003906 L 288.882812 97.796875 L 281.085938 97.796875 L 281.085938 105.601562 L 265.484375 105.601562 L 265.484375 113.398438 L 249.886719 113.398438 L 249.886719 114.894531 L 232.796875 114.894531 L 232.796875 104.105469 L 240.59375 104.105469 L 240.59375 99.296875 L 227.988281 99.296875 L 227.988281 107.097656 L 220.191406 107.097656 L 220.191406 114.894531 L 212.386719 114.894531 L 212.386719 122.703125 L 204.589844 122.703125 L 204.589844 129 L 195.300781 129 L 195.300781 136.796875 L 171.898438 136.796875 L 171.898438 144.597656 L 148.5 144.597656 L 148.5 152.390625 L 140.707031 152.390625 L 140.707031 153.890625 L 139.207031 153.890625 L 139.207031 152.390625 L 140.707031 152.390625 L 140.707031 136.796875 L 148.5 136.796875 L 148.5 129 L 140.707031 129 L 140.707031 113.398438 L 139.207031 113.398438 L 139.207031 111.902344 L 140.707031 111.902344 L 140.707031 113.398438 L 148.5 113.398438 L 148.5 105.601562 L 147.003906 105.601562 L 147.003906 99.296875 L 140.707031 99.296875 L 140.707031 97.796875 L 139.207031 97.796875 L 139.207031 90.003906 L 140.707031 90.003906 L 140.707031 88.507812 L 148.5 88.507812 L 148.5 90.003906 L 149.996094 90.003906 L 149.996094 96.300781 L 154.808594 96.300781 L 154.808594 90.003906 L 156.304688 90.003906 L 156.304688 88.507812 L 162.601562 88.507812 L 162.601562 83.703125 L 156.304688 83.703125 L 156.304688 82.207031 L 148.5 82.207031 L 148.5 83.703125 L 140.707031 83.703125 L 140.707031 82.207031 L 131.402344 82.207031 L 131.402344 74.40625 L 132.902344 74.40625 L 132.902344 72.90625 L 139.207031 72.90625 L 139.207031 66.605469 L 140.707031 66.605469 L 140.707031 65.109375 L 147.003906 65.109375 L 147.003906 58.808594 L 148.5 58.808594 L 148.5 51.007812 L 140.707031 51.007812 L 140.707031 58.808594 L 142.203125 58.808594 L 142.203125 60.308594 L 140.707031 60.308594 L 140.707031 58.808594 L 125.105469 58.808594 L 125.105469 66.605469 L 117.308594 66.605469 L 117.308594 74.40625 L 108.007812 74.40625 L 108.007812 66.605469 L 109.507812 66.605469 L 109.507812 65.109375 L 115.8125 65.109375 L 115.8125 58.808594 L 117.308594 58.808594 L 117.308594 57.3125 L 123.609375 57.3125 L 123.609375 51.007812 L 125.105469 51.007812 L 125.105469 49.511719 L 131.402344 49.511719 L 131.402344 43.214844 L 132.902344 43.214844 L 132.902344 41.714844 L 139.207031 41.714844 L 139.207031 35.40625 L 140.707031 35.40625 L 140.707031 27.613281 L 132.902344 27.613281 L 132.902344 35.40625 L 134.398438 35.40625 L 134.398438 36.90625 L 132.902344 36.90625 L 132.902344 35.40625 L 125.105469 35.40625 L 125.105469 43.214844 L 126.605469 43.214844 L 126.605469 44.710938 L 125.105469 44.710938 L 125.105469 43.214844 L 117.308594 43.214844 L 117.308594 51.007812 L 118.808594 51.007812 L 118.808594 52.503906 L 117.308594 52.503906 L 117.308594 51.007812 L 108.007812 51.007812 L 108.007812 43.214844 L 109.507812 43.214844 L 109.507812 41.714844 L 115.8125 41.714844 L 115.8125 36.90625 L 109.507812 36.90625 L 109.507812 35.40625 L 101.710938 35.40625 L 101.710938 43.214844 L 103.207031 43.214844 L 103.207031 44.710938 L 101.710938 44.710938 L 101.710938 43.214844 L 93.90625 43.214844 L 93.90625 51.007812 L 95.402344 51.007812 L 95.402344 52.503906 L 93.90625 52.503906 L 93.90625 51.007812 L 86.109375 51.007812 L 86.109375 58.808594 L 87.605469 58.808594 L 87.605469 60.308594 L 86.109375 60.308594 L 86.109375 58.808594 L 70.511719 58.808594 L 70.511719 60.308594 L 69.011719 60.308594 L 69.011719 52.503906 L 64.214844 52.503906 L 64.214844 60.308594 L 56.417969 60.308594 L 56.417969 66.605469 L 54.917969 66.605469 L 54.917969 68.105469 L 48.613281 68.105469 L 48.613281 74.40625 L 47.117188 74.40625 L 47.117188 82.207031 L 48.613281 82.207031 L 48.613281 83.703125 L 47.117188 83.703125 L 47.117188 82.207031 L 39.320312 82.207031 L 39.320312 97.796875 L 31.515625 97.796875 L 31.515625 113.398438 L 23.71875 113.398438 L 23.71875 144.597656 L 31.515625 144.597656 L 31.515625 152.390625 L 39.320312 152.390625 L 39.320312 160.199219 L 47.117188 160.199219 L 47.117188 167.992188 L 31.515625 167.992188 L 31.515625 175.789062 L 23.71875 175.789062 L 23.71875 183.59375 L 25.214844 183.59375 L 25.214844 185.09375 L 17.421875 185.09375 L 17.421875 192.886719 L 9.621094 192.886719 L 9.621094 200.6875 L 1.824219 200.6875 L 1.824219 205.492188 L 9.621094 205.492188 L 9.621094 213.285156 L 33.011719 213.285156 L 33.011719 221.089844 L 39.320312 221.089844 L 39.320312 222.589844 L 54.917969 222.589844 L 54.917969 230.382812 L 56.417969 230.382812 L 56.417969 236.691406 L 62.714844 236.691406 L 62.714844 238.1875 L 64.214844 238.1875 L 64.214844 244.484375 L 70.511719 244.484375 L 70.511719 253.78125 L 72.007812 253.78125 L 72.007812 260.085938 L 78.316406 260.085938 L 78.316406 261.582031 L 79.8125 261.582031 L 79.8125 267.882812 L 93.90625 267.882812 L 93.90625 269.378906 L 95.402344 269.378906 L 95.402344 275.683594 L 125.105469 275.683594 L 125.105469 284.980469 L 126.605469 284.980469 L 126.605469 286.476562 L 103.207031 286.476562 L 103.207031 291.277344 L 111.003906 291.277344 L 111.003906 299.078125 L 115.8125 299.078125 L 115.8125 291.277344 L 131.402344 291.277344 L 131.402344 284.980469 L 140.707031 284.980469 L 140.707031 277.183594 L 156.304688 277.183594 L 156.304688 284.980469 L 157.804688 284.980469 L 157.804688 291.277344 L 162.601562 291.277344 L 162.601562 284.980469 L 173.394531 284.980469 L 173.394531 291.277344 L 179.699219 291.277344 L 179.699219 292.773438 L 181.199219 292.773438 L 181.199219 299.078125 L 187.496094 299.078125 L 187.496094 308.371094 L 195.300781 308.371094 L 195.300781 316.171875 L 203.09375 316.171875 L 203.09375 323.972656 L 210.890625 323.972656 L 210.890625 331.765625 L 212.386719 331.765625 L 212.386719 338.074219 L 217.195312 338.074219 L 217.195312 331.765625 L 226.492188 331.765625 L 226.492188 339.574219 L 242.089844 339.574219 L 242.089844 331.765625 L 249.886719 331.765625 L 249.886719 323.972656 L 257.691406 323.972656 L 257.691406 331.765625 L 273.289062 331.765625 L 273.289062 323.972656 L 265.484375 323.972656 L 265.484375 316.171875 L 273.289062 316.171875 L 273.289062 308.371094 L 257.691406 308.371094 L 257.691406 300.574219 L 249.886719 300.574219 L 249.886719 292.773438 L 232.796875 292.773438 L 232.796875 286.476562 L 226.492188 286.476562 L 226.492188 284.980469 L 210.890625 284.980469 L 210.890625 277.183594 L 209.394531 277.183594 L 209.394531 275.683594 L 217.195312 275.683594 L 217.195312 270.875 L 203.09375 270.875 L 203.09375 269.378906 L 187.496094 269.378906 L 187.496094 260.085938 L 193.800781 260.085938 L 193.800781 255.277344 L 187.496094 255.277344 L 187.496094 253.78125 L 178.203125 253.78125 L 178.203125 247.480469 L 171.898438 247.480469 L 171.898438 238.1875 L 164.101562 238.1875 L 164.101562 230.382812 L 162.601562 230.382812 L 162.601562 228.886719 L 178.203125 228.886719 L 178.203125 222.589844 L 203.09375 222.589844 L 203.09375 214.78125 L 195.300781 214.78125 L 195.300781 206.988281 L 203.09375 206.988281 L 203.09375 214.78125 L 210.890625 214.78125 L 210.890625 206.988281 L 218.695312 206.988281 L 218.695312 199.191406 L 226.492188 199.191406 L 226.492188 191.390625 L 234.292969 191.390625 L 234.292969 183.59375 L 249.886719 183.59375 L 249.886719 182.097656 L 257.691406 182.097656 L 257.691406 183.59375 L 265.484375 183.59375 L 265.484375 175.789062 L 257.691406 175.789062 L 257.691406 177.285156 L 249.886719 177.285156 L 249.886719 175.789062 L 234.292969 175.789062 L 234.292969 167.992188 L 257.691406 167.992188 L 257.691406 166.496094 L 271.792969 166.496094 L 271.792969 160.199219 L 281.085938 160.199219 L 281.085938 144.597656 L 304.480469 144.597656 L 304.480469 143.101562 L 310.777344 143.101562 L 310.777344 138.292969 L 304.480469 138.292969 L 304.480469 136.796875 L 288.882812 136.796875 L 288.882812 129 L 304.480469 129 L 304.480469 121.203125 L 327.875 121.203125 L 327.875 113.398438 L 335.679688 113.398438 L 335.679688 105.601562 L 343.476562 105.601562 L 343.476562 97.796875 L 341.976562 97.796875 L 341.976562 96.300781 L 343.476562 96.300781 L 343.476562 97.796875 L 351.273438 97.796875 L 351.273438 96.300781 L 359.074219 96.300781 L 359.074219 97.796875 L 366.871094 97.796875 L 366.871094 90.003906 L 359.074219 90.003906 L 359.074219 91.5 L 351.273438 91.5 L 351.273438 90.003906 L 343.476562 90.003906 L 343.476562 91.5 L 341.976562 91.5 L 341.976562 90.003906 L 343.476562 90.003906 L 343.476562 82.207031 Z M 220.191406 345.871094 L 224.992188 345.871094 L 224.992188 341.070312 L 220.191406 341.070312 Z M 157.804688 322.476562 L 162.601562 322.476562 L 162.601562 317.667969 L 157.804688 317.667969 Z M 149.996094 299.078125 L 154.808594 299.078125 L 154.808594 294.269531 L 149.996094 294.269531 Z M 149.996094 314.671875 L 154.808594 314.671875 L 154.808594 309.871094 L 149.996094 309.871094 Z M 142.203125 306.875 L 147.003906 306.875 L 147.003906 302.074219 L 142.203125 302.074219 Z M 256.191406 83.703125 L 251.382812 83.703125 L 251.382812 88.507812 L 256.191406 88.507812 Z M 248.386719 91.5 L 243.589844 91.5 L 243.589844 96.300781 L 248.386719 96.300781 Z M 126.605469 314.671875 L 134.398438 314.671875 L 134.398438 330.269531 L 139.207031 330.269531 L 139.207031 309.871094 L 126.605469 309.871094 Z M 123.609375 29.109375 L 118.808594 29.109375 L 118.808594 33.910156 L 123.609375 33.910156 Z M 326.378906 52.503906 L 321.578125 52.503906 L 321.578125 57.3125 L 326.378906 57.3125 Z M 170.398438 75.902344 L 165.597656 75.902344 L 165.597656 80.710938 L 170.398438 80.710938 Z M 118.808594 322.476562 L 123.609375 322.476562 L 123.609375 317.667969 L 118.808594 317.667969 Z M 76.816406 44.710938 L 72.007812 44.710938 L 72.007812 49.511719 L 76.816406 49.511719 Z M 290.378906 182.097656 L 295.1875 182.097656 L 295.1875 177.285156 L 290.378906 177.285156 Z M 298.183594 166.496094 L 302.984375 166.496094 L 302.984375 161.695312 L 298.183594 161.695312 Z M 357.578125 36.90625 L 352.769531 36.90625 L 352.769531 41.714844 L 357.578125 41.714844 Z M 118.808594 306.875 L 123.609375 306.875 L 123.609375 302.074219 L 118.808594 302.074219 Z M 341.976562 36.90625 L 337.175781 36.90625 L 337.175781 41.714844 L 341.976562 41.714844 Z M 279.585938 182.097656 L 279.585938 177.285156 L 274.789062 177.285156 L 274.789062 182.097656 Z M 321.578125 143.101562 L 326.378906 143.101562 L 326.378906 138.292969 L 321.578125 138.292969 Z M 100.210938 294.269531 L 95.402344 294.269531 L 95.402344 302.074219 L 87.605469 302.074219 L 87.605469 306.875 L 95.402344 306.875 L 95.402344 314.671875 L 100.210938 314.671875 L 100.210938 306.875 L 108.007812 306.875 L 108.007812 302.074219 L 100.210938 302.074219 Z M 271.792969 291.277344 L 271.792969 286.476562 L 266.980469 286.476562 L 266.980469 291.277344 Z M 248.386719 205.492188 L 248.386719 200.6875 L 243.589844 200.6875 L 243.589844 205.492188 Z M 232.796875 221.089844 L 232.796875 216.28125 L 227.988281 216.28125 L 227.988281 221.089844 Z M 282.582031 166.496094 L 287.382812 166.496094 L 287.382812 161.695312 L 282.582031 161.695312 Z M 259.1875 213.285156 L 259.1875 208.484375 L 263.988281 208.484375 L 263.988281 213.285156 L 259.1875 213.285156 " fill-opacity="1" fill-rule="nonzero"/></g><path fill="#00a0b8" d="M 54.917969 183.59375 L 54.917969 191.390625 L 39.320312 191.390625 L 39.320312 183.59375 L 54.917969 183.59375 " fill-opacity="1" fill-rule="nonzero"/><g clip-path="url(#96a5f30a98)"><path fill="#00a0b8" d="M 23.71875 206.988281 L 8.121094 206.988281 L 8.121094 214.78125 L 31.515625 214.78125 L 31.515625 206.988281 Z M 31.515625 222.589844 L 39.320312 222.589844 L 39.320312 214.78125 L 31.515625 214.78125 Z M 47.117188 66.605469 L 47.117188 74.40625 L 54.917969 74.40625 L 54.917969 66.605469 Z M 54.917969 82.207031 L 47.117188 82.207031 L 47.117188 90.003906 L 54.917969 90.003906 Z M 62.714844 74.40625 L 54.917969 74.40625 L 54.917969 82.207031 L 62.714844 82.207031 Z M 62.714844 183.59375 L 62.714844 175.789062 L 47.117188 175.789062 L 47.117188 183.59375 Z M 54.917969 230.382812 L 54.917969 238.1875 L 62.714844 238.1875 L 62.714844 230.382812 Z M 70.511719 66.605469 L 70.511719 51.007812 L 62.714844 51.007812 L 62.714844 58.808594 L 54.917969 58.808594 L 54.917969 66.605469 Z M 70.511719 245.980469 L 70.511719 238.1875 L 62.714844 238.1875 L 62.714844 245.980469 Z M 78.316406 43.214844 L 70.511719 43.214844 L 70.511719 51.007812 L 78.316406 51.007812 Z M 70.511719 253.78125 L 70.511719 261.582031 L 78.316406 261.582031 L 78.316406 253.78125 Z M 86.109375 238.1875 L 86.109375 230.382812 L 70.511719 230.382812 L 70.511719 238.1875 Z M 86.109375 269.378906 L 93.90625 269.378906 L 93.90625 261.582031 L 78.316406 261.582031 L 78.316406 269.378906 Z M 93.90625 58.808594 L 86.109375 58.808594 L 86.109375 66.605469 L 93.90625 66.605469 Z M 93.90625 245.980469 L 93.90625 238.1875 L 86.109375 238.1875 L 86.109375 245.980469 Z M 101.710938 51.007812 L 93.90625 51.007812 L 93.90625 58.808594 L 101.710938 58.808594 Z M 101.710938 277.183594 L 125.105469 277.183594 L 125.105469 269.378906 L 93.90625 269.378906 L 93.90625 277.183594 Z M 101.710938 292.773438 L 93.90625 292.773438 L 93.90625 300.574219 L 86.109375 300.574219 L 86.109375 308.371094 L 93.90625 308.371094 L 93.90625 316.171875 L 101.710938 316.171875 L 101.710938 308.371094 L 109.507812 308.371094 L 109.507812 300.574219 L 101.710938 300.574219 Z M 109.507812 43.214844 L 101.710938 43.214844 L 101.710938 51.007812 L 109.507812 51.007812 Z M 101.710938 74.40625 L 109.507812 74.40625 L 109.507812 66.605469 L 101.710938 66.605469 Z M 109.507812 129 L 101.710938 129 L 101.710938 136.796875 L 109.507812 136.796875 Z M 101.710938 230.382812 L 101.710938 238.1875 L 109.507812 238.1875 L 109.507812 230.382812 Z M 117.308594 35.40625 L 109.507812 35.40625 L 109.507812 43.214844 L 117.308594 43.214844 Z M 109.507812 66.605469 L 117.308594 66.605469 L 117.308594 58.808594 L 109.507812 58.808594 Z M 117.308594 121.203125 L 109.507812 121.203125 L 109.507812 129 L 117.308594 129 Z M 117.308594 175.789062 L 109.507812 175.789062 L 109.507812 183.59375 L 117.308594 183.59375 Z M 117.308594 245.980469 L 117.308594 238.1875 L 109.507812 238.1875 L 109.507812 245.980469 Z M 125.105469 27.613281 L 117.308594 27.613281 L 117.308594 35.40625 L 125.105469 35.40625 Z M 117.308594 58.808594 L 125.105469 58.808594 L 125.105469 51.007812 L 117.308594 51.007812 Z M 117.308594 90.003906 L 125.105469 90.003906 L 125.105469 82.207031 L 117.308594 82.207031 Z M 125.105469 167.992188 L 117.308594 167.992188 L 117.308594 175.789062 L 125.105469 175.789062 Z M 125.105469 292.773438 L 132.902344 292.773438 L 132.902344 284.980469 L 101.710938 284.980469 L 101.710938 292.773438 L 109.507812 292.773438 L 109.507812 300.574219 L 117.308594 300.574219 L 117.308594 292.773438 Z M 117.308594 300.574219 L 117.308594 308.371094 L 125.105469 308.371094 L 125.105469 300.574219 Z M 117.308594 323.972656 L 125.105469 323.972656 L 125.105469 316.171875 L 117.308594 316.171875 Z M 125.105469 51.007812 L 132.902344 51.007812 L 132.902344 43.214844 L 125.105469 43.214844 Z M 125.105469 82.207031 L 132.902344 82.207031 L 132.902344 74.40625 L 125.105469 74.40625 Z M 125.105469 105.601562 L 125.105469 113.398438 L 140.707031 113.398438 L 140.707031 105.601562 Z M 125.105469 308.371094 L 125.105469 316.171875 L 132.902344 316.171875 L 132.902344 331.765625 L 140.707031 331.765625 L 140.707031 308.371094 Z M 140.707031 35.40625 L 132.902344 35.40625 L 132.902344 43.214844 L 140.707031 43.214844 Z M 132.902344 74.40625 L 140.707031 74.40625 L 140.707031 66.605469 L 132.902344 66.605469 Z M 132.902344 90.003906 L 132.902344 97.796875 L 140.707031 97.796875 L 140.707031 90.003906 Z M 140.707031 66.605469 L 148.5 66.605469 L 148.5 58.808594 L 140.707031 58.808594 Z M 148.5 82.207031 L 140.707031 82.207031 L 140.707031 90.003906 L 148.5 90.003906 Z M 140.707031 105.601562 L 148.5 105.601562 L 148.5 97.796875 L 140.707031 97.796875 Z M 140.707031 308.371094 L 148.5 308.371094 L 148.5 300.574219 L 140.707031 300.574219 Z M 148.5 97.796875 L 156.304688 97.796875 L 156.304688 90.003906 L 148.5 90.003906 Z M 148.5 214.78125 L 132.902344 214.78125 L 132.902344 222.589844 L 156.304688 222.589844 L 156.304688 214.78125 Z M 148.5 300.574219 L 156.304688 300.574219 L 156.304688 292.773438 L 148.5 292.773438 Z M 156.304688 316.171875 L 156.304688 308.371094 L 148.5 308.371094 L 148.5 316.171875 Z M 164.101562 82.207031 L 156.304688 82.207031 L 156.304688 90.003906 L 164.101562 90.003906 Z M 164.101562 206.988281 L 156.304688 206.988281 L 156.304688 214.78125 L 164.101562 214.78125 Z M 156.304688 292.773438 L 164.101562 292.773438 L 164.101562 284.980469 L 156.304688 284.980469 Z M 164.101562 323.972656 L 164.101562 316.171875 L 156.304688 316.171875 L 156.304688 323.972656 Z M 171.898438 74.40625 L 164.101562 74.40625 L 164.101562 82.207031 L 171.898438 82.207031 Z M 179.699219 230.382812 L 179.699219 222.589844 L 156.304688 222.589844 L 156.304688 230.382812 Z M 171.898438 253.78125 L 179.699219 253.78125 L 179.699219 245.980469 L 171.898438 245.980469 Z M 171.898438 284.980469 L 171.898438 292.773438 L 179.699219 292.773438 L 179.699219 284.980469 Z M 179.699219 300.574219 L 187.496094 300.574219 L 187.496094 292.773438 L 179.699219 292.773438 Z M 187.496094 261.582031 L 195.300781 261.582031 L 195.300781 253.78125 L 187.496094 253.78125 Z M 218.695312 277.183594 L 218.695312 269.378906 L 203.09375 269.378906 L 203.09375 277.183594 Z M 210.890625 331.765625 L 210.890625 339.574219 L 218.695312 339.574219 L 218.695312 331.765625 Z M 218.695312 347.367188 L 226.492188 347.367188 L 226.492188 339.574219 L 218.695312 339.574219 Z M 226.492188 222.589844 L 234.292969 222.589844 L 234.292969 214.78125 L 226.492188 214.78125 Z M 226.492188 292.773438 L 234.292969 292.773438 L 234.292969 284.980469 L 226.492188 284.980469 Z M 249.886719 90.003906 L 242.089844 90.003906 L 242.089844 97.796875 L 249.886719 97.796875 Z M 249.886719 121.203125 L 249.886719 113.398438 L 234.292969 113.398438 L 234.292969 105.601562 L 242.089844 105.601562 L 242.089844 97.796875 L 226.492188 97.796875 L 226.492188 105.601562 L 218.695312 105.601562 L 218.695312 113.398438 L 210.890625 113.398438 L 210.890625 121.203125 L 203.09375 121.203125 L 203.09375 129 L 218.695312 129 L 218.695312 121.203125 Z M 242.089844 206.988281 L 249.886719 206.988281 L 249.886719 199.191406 L 242.089844 199.191406 Z M 257.691406 82.207031 L 249.886719 82.207031 L 249.886719 90.003906 L 257.691406 90.003906 Z M 257.691406 175.789062 L 249.886719 175.789062 L 249.886719 183.59375 L 257.691406 183.59375 Z M 257.691406 167.992188 L 273.289062 167.992188 L 273.289062 160.199219 L 257.691406 160.199219 Z M 265.484375 206.988281 L 257.691406 206.988281 L 257.691406 214.78125 L 265.484375 214.78125 Z M 265.484375 292.773438 L 273.289062 292.773438 L 273.289062 284.980469 L 265.484375 284.980469 Z M 273.289062 183.59375 L 281.085938 183.59375 L 281.085938 175.789062 L 273.289062 175.789062 Z M 288.882812 160.199219 L 281.085938 160.199219 L 281.085938 167.992188 L 288.882812 167.992188 Z M 288.882812 183.59375 L 296.683594 183.59375 L 296.683594 175.789062 L 288.882812 175.789062 Z M 296.683594 167.992188 L 304.480469 167.992188 L 304.480469 160.199219 L 296.683594 160.199219 Z M 304.480469 144.597656 L 312.277344 144.597656 L 312.277344 136.796875 L 304.480469 136.796875 Z M 320.082031 66.605469 L 320.082031 58.808594 L 312.277344 58.808594 L 312.277344 74.40625 L 320.082031 74.40625 Z M 320.082031 97.796875 L 312.277344 97.796875 L 312.277344 105.601562 L 320.082031 105.601562 Z M 327.875 51.007812 L 320.082031 51.007812 L 320.082031 58.808594 L 327.875 58.808594 Z M 320.082031 144.597656 L 327.875 144.597656 L 327.875 136.796875 L 320.082031 136.796875 Z M 327.875 90.003906 L 327.875 97.796875 L 343.476562 97.796875 L 343.476562 90.003906 Z M 335.679688 43.214844 L 343.476562 43.214844 L 343.476562 35.40625 L 335.679688 35.40625 Z M 351.273438 35.40625 L 351.273438 43.214844 L 359.074219 43.214844 L 359.074219 35.40625 Z M 351.273438 90.003906 L 359.074219 90.003906 L 359.074219 97.796875 L 351.273438 97.796875 L 351.273438 90.003906 " fill-opacity="1" fill-rule="nonzero"/></g><path fill="#00a0b8" d="M 31.515625 183.59375 L 15.925781 183.59375 L 15.925781 191.390625 L 8.121094 191.390625 L 8.121094 199.191406 L 0.324219 199.191406 L 0.324219 206.988281 L 31.515625 206.988281 L 31.515625 214.78125 L 39.320312 214.78125 L 39.320312 191.390625 L 31.515625 191.390625 Z M 86.109375 183.59375 L 86.109375 191.390625 L 101.710938 191.390625 L 101.710938 183.59375 Z M 101.710938 183.59375 L 109.507812 183.59375 L 109.507812 175.789062 L 101.710938 175.789062 Z M 125.105469 167.992188 L 132.902344 167.992188 L 132.902344 160.199219 L 125.105469 160.199219 Z M 140.707031 152.390625 L 140.707031 160.199219 L 132.902344 160.199219 L 132.902344 152.390625 L 140.707031 152.390625 " fill-opacity="1" fill-rule="nonzero"/><g clip-path="url(#6dbc0a54cc)"><path fill="#100f0d" d="M 332.992188 61.800781 L 325.9375 61.800781 L 325.9375 68.855469 L 332.992188 68.855469 Z M 255.398438 329.84375 L 255.398438 322.796875 L 248.347656 322.796875 L 248.347656 329.84375 Z M 234.238281 329.84375 L 241.289062 329.84375 L 241.289062 322.796875 L 234.238281 322.796875 Z M 269.507812 322.796875 L 269.507812 315.734375 L 262.460938 315.734375 L 262.460938 322.796875 Z M 220.128906 209.925781 L 220.128906 202.878906 L 213.078125 202.878906 L 213.078125 209.925781 Z M 255.398438 280.46875 L 248.347656 280.46875 L 248.347656 287.523438 L 255.398438 287.523438 Z M 234.238281 195.828125 L 234.238281 188.769531 L 227.1875 188.769531 L 227.1875 195.828125 Z M 347.101562 68.855469 L 347.101562 75.910156 L 354.15625 75.910156 L 354.15625 68.855469 Z M 325.9375 68.855469 L 318.886719 68.855469 L 318.886719 75.910156 L 325.9375 75.910156 Z M 340.046875 82.960938 L 347.101562 82.960938 L 347.101562 75.910156 L 340.046875 75.910156 Z M 318.886719 75.910156 L 311.828125 75.910156 L 311.828125 82.960938 L 318.886719 82.960938 Z M 241.289062 322.796875 L 248.347656 322.796875 L 248.347656 315.734375 L 241.289062 315.734375 Z M 325.9375 82.960938 L 325.9375 90.019531 L 340.046875 90.019531 L 340.046875 82.960938 Z M 311.828125 90.019531 L 311.828125 97.070312 L 313.183594 97.070312 L 313.183594 98.425781 L 311.828125 98.425781 L 311.828125 97.070312 L 304.78125 97.070312 L 304.78125 90.019531 L 311.828125 90.019531 L 311.828125 82.960938 L 303.425781 82.960938 L 303.425781 70.210938 L 299.074219 70.210938 L 299.074219 82.960938 L 297.71875 82.960938 L 297.71875 90.019531 L 283.617188 90.019531 L 283.617188 97.070312 L 276.558594 97.070312 L 276.558594 104.121094 L 269.507812 104.121094 L 269.507812 111.175781 L 255.398438 111.175781 L 255.398438 118.230469 L 241.289062 118.230469 L 241.289062 119.582031 L 225.832031 119.582031 L 225.832031 109.824219 L 232.886719 109.824219 L 232.886719 105.472656 L 221.484375 105.472656 L 221.484375 112.53125 L 214.433594 112.53125 L 214.433594 119.582031 L 207.375 119.582031 L 207.375 126.644531 L 200.324219 126.644531 L 200.324219 132.339844 L 191.917969 132.339844 L 191.917969 139.390625 L 170.753906 139.390625 L 170.753906 146.449219 L 149.589844 146.449219 L 149.589844 153.496094 L 142.542969 153.496094 L 142.542969 154.851562 L 141.1875 154.851562 L 141.1875 153.496094 L 142.542969 153.496094 L 142.542969 139.390625 L 149.589844 139.390625 L 149.589844 132.339844 L 142.542969 132.339844 L 142.542969 118.230469 L 141.1875 118.230469 L 141.1875 116.875 L 142.542969 116.875 L 142.542969 118.230469 L 149.589844 118.230469 L 149.589844 111.175781 L 148.238281 111.175781 L 148.238281 105.472656 L 142.542969 105.472656 L 142.542969 104.121094 L 141.1875 104.121094 L 141.1875 97.070312 L 142.542969 97.070312 L 142.542969 95.714844 L 149.589844 95.714844 L 149.589844 97.070312 L 150.945312 97.070312 L 150.945312 102.765625 L 155.296875 102.765625 L 155.296875 97.070312 L 156.652344 97.070312 L 156.652344 95.714844 L 162.347656 95.714844 L 162.347656 91.371094 L 156.652344 91.371094 L 156.652344 90.019531 L 149.589844 90.019531 L 149.589844 91.371094 L 142.542969 91.371094 L 142.542969 90.019531 L 134.128906 90.019531 L 134.128906 82.960938 L 135.480469 82.960938 L 135.480469 81.605469 L 141.1875 81.605469 L 141.1875 75.910156 L 142.542969 75.910156 L 142.542969 74.554688 L 148.238281 74.554688 L 148.238281 68.855469 L 149.589844 68.855469 L 149.589844 61.800781 L 142.542969 61.800781 L 142.542969 68.855469 L 143.894531 68.855469 L 143.894531 70.210938 L 142.542969 70.210938 L 142.542969 68.855469 L 128.433594 68.855469 L 128.433594 75.910156 L 121.378906 75.910156 L 121.378906 82.960938 L 112.96875 82.960938 L 112.96875 75.910156 L 114.324219 75.910156 L 114.324219 74.554688 L 120.027344 74.554688 L 120.027344 68.855469 L 121.378906 68.855469 L 121.378906 67.503906 L 127.078125 67.503906 L 127.078125 61.800781 L 128.433594 61.800781 L 128.433594 60.445312 L 134.128906 60.445312 L 134.128906 54.75 L 135.480469 54.75 L 135.480469 53.394531 L 141.1875 53.394531 L 141.1875 47.691406 L 142.542969 47.691406 L 142.542969 40.640625 L 135.480469 40.640625 L 135.480469 47.691406 L 136.835938 47.691406 L 136.835938 49.042969 L 135.480469 49.042969 L 135.480469 47.691406 L 128.433594 47.691406 L 128.433594 54.75 L 129.785156 54.75 L 129.785156 56.105469 L 128.433594 56.105469 L 128.433594 54.75 L 121.378906 54.75 L 121.378906 61.800781 L 122.734375 61.800781 L 122.734375 63.152344 L 121.378906 63.152344 L 121.378906 61.800781 L 112.96875 61.800781 L 112.96875 54.75 L 114.324219 54.75 L 114.324219 53.394531 L 120.027344 53.394531 L 120.027344 49.042969 L 114.324219 49.042969 L 114.324219 47.691406 L 107.269531 47.691406 L 107.269531 54.75 L 108.625 54.75 L 108.625 56.105469 L 107.269531 56.105469 L 107.269531 54.75 L 100.214844 54.75 L 100.214844 61.800781 L 101.566406 61.800781 L 101.566406 63.152344 L 100.214844 63.152344 L 100.214844 61.800781 L 93.160156 61.800781 L 93.160156 68.855469 L 94.515625 68.855469 L 94.515625 70.210938 L 93.160156 70.210938 L 93.160156 68.855469 L 79.050781 68.855469 L 79.050781 70.210938 L 77.699219 70.210938 L 77.699219 63.152344 L 73.355469 63.152344 L 73.355469 70.210938 L 66.304688 70.210938 L 66.304688 75.910156 L 64.949219 75.910156 L 64.949219 77.261719 L 59.246094 77.261719 L 59.246094 82.960938 L 57.894531 82.960938 L 57.894531 90.019531 L 59.246094 90.019531 L 59.246094 91.371094 L 57.894531 91.371094 L 57.894531 90.019531 L 50.839844 90.019531 L 50.839844 104.121094 L 43.785156 104.121094 L 43.785156 118.230469 L 36.730469 118.230469 L 36.730469 146.449219 L 43.785156 146.449219 L 43.785156 153.496094 L 50.839844 153.496094 L 50.839844 160.558594 L 57.894531 160.558594 L 57.894531 167.605469 L 43.785156 167.605469 L 43.785156 174.660156 L 36.730469 174.660156 L 36.730469 181.71875 L 38.085938 181.71875 L 38.085938 183.074219 L 31.035156 183.074219 L 31.035156 190.125 L 23.980469 190.125 L 23.980469 197.179688 L 16.925781 197.179688 L 16.925781 201.523438 L 23.980469 201.523438 L 23.980469 208.574219 L 45.136719 208.574219 L 45.136719 215.632812 L 50.839844 215.632812 L 50.839844 216.988281 L 64.949219 216.988281 L 64.949219 224.039062 L 66.304688 224.039062 L 66.304688 229.742188 L 72.003906 229.742188 L 72.003906 231.097656 L 73.355469 231.097656 L 73.355469 236.792969 L 79.050781 236.792969 L 79.050781 245.199219 L 80.40625 245.199219 L 80.40625 250.902344 L 86.113281 250.902344 L 86.113281 252.257812 L 87.464844 252.257812 L 87.464844 257.953125 L 100.214844 257.953125 L 100.214844 259.308594 L 101.566406 259.308594 L 101.566406 265.011719 L 128.433594 265.011719 L 128.433594 273.417969 L 129.785156 273.417969 L 129.785156 274.773438 L 108.625 274.773438 L 108.625 279.113281 L 115.675781 279.113281 L 115.675781 286.171875 L 120.027344 286.171875 L 120.027344 279.113281 L 134.128906 279.113281 L 134.128906 273.417969 L 142.542969 273.417969 L 142.542969 266.367188 L 156.652344 266.367188 L 156.652344 273.417969 L 158.003906 273.417969 L 158.003906 279.113281 L 162.347656 279.113281 L 162.347656 273.417969 L 172.105469 273.417969 L 172.105469 279.113281 L 177.808594 279.113281 L 177.808594 280.46875 L 179.164062 280.46875 L 179.164062 286.171875 L 184.863281 286.171875 L 184.863281 294.578125 L 191.917969 294.578125 L 191.917969 301.628906 L 198.96875 301.628906 L 198.96875 308.6875 L 206.019531 308.6875 L 206.019531 315.734375 L 207.375 315.734375 L 207.375 321.441406 L 211.722656 321.441406 L 211.722656 315.734375 L 220.128906 315.734375 L 220.128906 322.796875 L 234.238281 322.796875 L 234.238281 315.734375 L 241.289062 315.734375 L 241.289062 308.6875 L 248.347656 308.6875 L 248.347656 315.734375 L 262.460938 315.734375 L 262.460938 308.6875 L 255.398438 308.6875 L 255.398438 301.628906 L 262.460938 301.628906 L 262.460938 294.578125 L 248.347656 294.578125 L 248.347656 287.523438 L 241.289062 287.523438 L 241.289062 280.46875 L 225.832031 280.46875 L 225.832031 274.773438 L 220.128906 274.773438 L 220.128906 273.417969 L 206.019531 273.417969 L 206.019531 266.367188 L 204.667969 266.367188 L 204.667969 265.011719 L 211.722656 265.011719 L 211.722656 260.664062 L 198.96875 260.664062 L 198.96875 259.308594 L 184.863281 259.308594 L 184.863281 250.902344 L 190.566406 250.902344 L 190.566406 246.554688 L 184.863281 246.554688 L 184.863281 245.199219 L 176.457031 245.199219 L 176.457031 239.5 L 170.753906 239.5 L 170.753906 231.097656 L 163.699219 231.097656 L 163.699219 224.039062 L 162.347656 224.039062 L 162.347656 222.683594 L 176.457031 222.683594 L 176.457031 216.988281 L 198.96875 216.988281 L 198.96875 209.925781 L 191.917969 209.925781 L 191.917969 202.878906 L 198.96875 202.878906 L 198.96875 209.925781 L 206.019531 209.925781 L 206.019531 202.878906 L 213.078125 202.878906 L 213.078125 195.828125 L 220.128906 195.828125 L 220.128906 188.769531 L 227.1875 188.769531 L 227.1875 181.71875 L 241.289062 181.71875 L 241.289062 180.363281 L 248.347656 180.363281 L 248.347656 181.71875 L 255.398438 181.71875 L 255.398438 174.660156 L 248.347656 174.660156 L 248.347656 176.015625 L 241.289062 176.015625 L 241.289062 174.660156 L 227.1875 174.660156 L 227.1875 167.605469 L 248.347656 167.605469 L 248.347656 166.253906 L 261.105469 166.253906 L 261.105469 160.558594 L 269.507812 160.558594 L 269.507812 146.449219 L 290.671875 146.449219 L 290.671875 145.09375 L 296.363281 145.09375 L 296.363281 140.746094 L 290.671875 140.746094 L 290.671875 139.390625 L 276.558594 139.390625 L 276.558594 132.339844 L 290.671875 132.339844 L 290.671875 125.289062 L 311.828125 125.289062 L 311.828125 118.230469 L 318.886719 118.230469 L 318.886719 111.175781 L 325.9375 111.175781 L 325.9375 104.121094 L 324.582031 104.121094 L 324.582031 102.765625 L 325.9375 102.765625 L 325.9375 104.121094 L 332.992188 104.121094 L 332.992188 102.765625 L 340.046875 102.765625 L 340.046875 104.121094 L 347.101562 104.121094 L 347.101562 97.070312 L 340.046875 97.070312 L 340.046875 98.425781 L 332.992188 98.425781 L 332.992188 97.070312 L 325.9375 97.070312 L 325.9375 98.425781 L 324.582031 98.425781 L 324.582031 97.070312 L 325.9375 97.070312 L 325.9375 90.019531 Z M 214.433594 328.492188 L 218.777344 328.492188 L 218.777344 324.148438 L 214.433594 324.148438 Z M 158.003906 307.332031 L 162.347656 307.332031 L 162.347656 302.984375 L 158.003906 302.984375 Z M 150.945312 286.171875 L 155.296875 286.171875 L 155.296875 281.820312 L 150.945312 281.820312 Z M 150.945312 300.273438 L 155.296875 300.273438 L 155.296875 295.929688 L 150.945312 295.929688 Z M 143.894531 293.222656 L 148.238281 293.222656 L 148.238281 288.878906 L 143.894531 288.878906 Z M 246.996094 91.371094 L 242.644531 91.371094 L 242.644531 95.714844 L 246.996094 95.714844 Z M 239.933594 98.425781 L 235.59375 98.425781 L 235.59375 102.765625 L 239.933594 102.765625 Z M 129.785156 300.273438 L 136.835938 300.273438 L 136.835938 314.382812 L 141.1875 314.382812 L 141.1875 295.929688 L 129.785156 295.929688 Z M 127.078125 41.996094 L 122.734375 41.996094 L 122.734375 46.335938 L 127.078125 46.335938 Z M 310.472656 63.152344 L 306.132812 63.152344 L 306.132812 67.503906 L 310.472656 67.503906 Z M 169.398438 84.316406 L 165.054688 84.316406 L 165.054688 88.664062 L 169.398438 88.664062 Z M 122.734375 307.332031 L 127.078125 307.332031 L 127.078125 302.984375 L 122.734375 302.984375 Z M 84.757812 56.105469 L 80.40625 56.105469 L 80.40625 60.445312 L 84.757812 60.445312 Z M 277.914062 180.363281 L 282.261719 180.363281 L 282.261719 176.015625 L 277.914062 176.015625 Z M 284.972656 166.253906 L 289.316406 166.253906 L 289.316406 161.914062 L 284.972656 161.914062 Z M 338.695312 49.042969 L 334.34375 49.042969 L 334.34375 53.394531 L 338.695312 53.394531 Z M 122.734375 293.222656 L 127.078125 293.222656 L 127.078125 288.878906 L 122.734375 288.878906 Z M 324.582031 49.042969 L 320.242188 49.042969 L 320.242188 53.394531 L 324.582031 53.394531 Z M 268.152344 180.363281 L 268.152344 176.015625 L 263.8125 176.015625 L 263.8125 180.363281 Z M 306.132812 145.09375 L 310.472656 145.09375 L 310.472656 140.746094 L 306.132812 140.746094 Z M 105.917969 281.820312 L 101.566406 281.820312 L 101.566406 288.878906 L 94.515625 288.878906 L 94.515625 293.222656 L 101.566406 293.222656 L 101.566406 300.273438 L 105.917969 300.273438 L 105.917969 293.222656 L 112.96875 293.222656 L 112.96875 288.878906 L 105.917969 288.878906 Z M 261.105469 279.113281 L 261.105469 274.773438 L 256.753906 274.773438 L 256.753906 279.113281 Z M 239.933594 201.523438 L 239.933594 197.179688 L 235.59375 197.179688 L 235.59375 201.523438 Z M 225.832031 215.632812 L 225.832031 211.28125 L 221.484375 211.28125 L 221.484375 215.632812 Z M 270.863281 166.253906 L 275.207031 166.253906 L 275.207031 161.914062 L 270.863281 161.914062 Z M 249.703125 208.574219 L 249.703125 204.234375 L 254.042969 204.234375 L 254.042969 208.574219 L 249.703125 208.574219 " fill-opacity="1" fill-rule="nonzero"/></g><path fill="#ffffff" d="M 64.949219 181.71875 L 64.949219 188.769531 L 50.839844 188.769531 L 50.839844 181.71875 L 64.949219 181.71875 " fill-opacity="1" fill-rule="nonzero"/><g clip-path="url(#e6822b6a6b)"><path fill="#21224e" d="M 36.730469 202.878906 L 22.625 202.878906 L 22.625 209.925781 L 43.785156 209.925781 L 43.785156 202.878906 Z M 43.785156 216.988281 L 50.839844 216.988281 L 50.839844 209.925781 L 43.785156 209.925781 Z M 57.894531 75.910156 L 57.894531 82.960938 L 64.949219 82.960938 L 64.949219 75.910156 Z M 64.949219 90.019531 L 57.894531 90.019531 L 57.894531 97.070312 L 64.949219 97.070312 Z M 72.003906 82.960938 L 64.949219 82.960938 L 64.949219 90.019531 L 72.003906 90.019531 Z M 72.003906 181.71875 L 72.003906 174.660156 L 57.894531 174.660156 L 57.894531 181.71875 Z M 64.949219 224.039062 L 64.949219 231.097656 L 72.003906 231.097656 L 72.003906 224.039062 Z M 79.050781 75.910156 L 79.050781 61.800781 L 72.003906 61.800781 L 72.003906 68.855469 L 64.949219 68.855469 L 64.949219 75.910156 Z M 79.050781 238.148438 L 79.050781 231.097656 L 72.003906 231.097656 L 72.003906 238.148438 Z M 86.113281 54.75 L 79.050781 54.75 L 79.050781 61.800781 L 86.113281 61.800781 Z M 79.050781 245.199219 L 79.050781 252.257812 L 86.113281 252.257812 L 86.113281 245.199219 Z M 93.160156 231.097656 L 93.160156 224.039062 L 79.050781 224.039062 L 79.050781 231.097656 Z M 93.160156 259.308594 L 100.214844 259.308594 L 100.214844 252.257812 L 86.113281 252.257812 L 86.113281 259.308594 Z M 100.214844 68.855469 L 93.160156 68.855469 L 93.160156 75.910156 L 100.214844 75.910156 Z M 100.214844 238.148438 L 100.214844 231.097656 L 93.160156 231.097656 L 93.160156 238.148438 Z M 107.269531 61.800781 L 100.214844 61.800781 L 100.214844 68.855469 L 107.269531 68.855469 Z M 107.269531 266.367188 L 128.433594 266.367188 L 128.433594 259.308594 L 100.214844 259.308594 L 100.214844 266.367188 Z M 107.269531 280.46875 L 100.214844 280.46875 L 100.214844 287.523438 L 93.160156 287.523438 L 93.160156 294.578125 L 100.214844 294.578125 L 100.214844 301.628906 L 107.269531 301.628906 L 107.269531 294.578125 L 114.324219 294.578125 L 114.324219 287.523438 L 107.269531 287.523438 Z M 114.324219 54.75 L 107.269531 54.75 L 107.269531 61.800781 L 114.324219 61.800781 Z M 107.269531 82.960938 L 114.324219 82.960938 L 114.324219 75.910156 L 107.269531 75.910156 Z M 114.324219 132.339844 L 107.269531 132.339844 L 107.269531 139.390625 L 114.324219 139.390625 Z M 107.269531 224.039062 L 107.269531 231.097656 L 114.324219 231.097656 L 114.324219 224.039062 Z M 121.378906 47.691406 L 114.324219 47.691406 L 114.324219 54.75 L 121.378906 54.75 Z M 114.324219 75.910156 L 121.378906 75.910156 L 121.378906 68.855469 L 114.324219 68.855469 Z M 121.378906 125.289062 L 114.324219 125.289062 L 114.324219 132.339844 L 121.378906 132.339844 Z M 121.378906 174.660156 L 114.324219 174.660156 L 114.324219 181.71875 L 121.378906 181.71875 Z M 121.378906 238.148438 L 121.378906 231.097656 L 114.324219 231.097656 L 114.324219 238.148438 Z M 128.433594 40.640625 L 121.378906 40.640625 L 121.378906 47.691406 L 128.433594 47.691406 Z M 121.378906 68.855469 L 128.433594 68.855469 L 128.433594 61.800781 L 121.378906 61.800781 Z M 121.378906 97.070312 L 128.433594 97.070312 L 128.433594 90.019531 L 121.378906 90.019531 Z M 128.433594 167.605469 L 121.378906 167.605469 L 121.378906 174.660156 L 128.433594 174.660156 Z M 128.433594 280.46875 L 135.480469 280.46875 L 135.480469 273.417969 L 107.269531 273.417969 L 107.269531 280.46875 L 114.324219 280.46875 L 114.324219 287.523438 L 121.378906 287.523438 L 121.378906 280.46875 Z M 121.378906 287.523438 L 121.378906 294.578125 L 128.433594 294.578125 L 128.433594 287.523438 Z M 121.378906 308.6875 L 128.433594 308.6875 L 128.433594 301.628906 L 121.378906 301.628906 Z M 128.433594 61.800781 L 135.480469 61.800781 L 135.480469 54.75 L 128.433594 54.75 Z M 128.433594 90.019531 L 135.480469 90.019531 L 135.480469 82.960938 L 128.433594 82.960938 Z M 128.433594 111.175781 L 128.433594 118.230469 L 142.542969 118.230469 L 142.542969 111.175781 Z M 128.433594 294.578125 L 128.433594 301.628906 L 135.480469 301.628906 L 135.480469 315.734375 L 142.542969 315.734375 L 142.542969 294.578125 Z M 142.542969 47.691406 L 135.480469 47.691406 L 135.480469 54.75 L 142.542969 54.75 Z M 135.480469 82.960938 L 142.542969 82.960938 L 142.542969 75.910156 L 135.480469 75.910156 Z M 135.480469 97.070312 L 135.480469 104.121094 L 142.542969 104.121094 L 142.542969 97.070312 Z M 142.542969 75.910156 L 149.589844 75.910156 L 149.589844 68.855469 L 142.542969 68.855469 Z M 149.589844 90.019531 L 142.542969 90.019531 L 142.542969 97.070312 L 149.589844 97.070312 Z M 142.542969 111.175781 L 149.589844 111.175781 L 149.589844 104.121094 L 142.542969 104.121094 Z M 142.542969 294.578125 L 149.589844 294.578125 L 149.589844 287.523438 L 142.542969 287.523438 Z M 149.589844 104.121094 L 156.652344 104.121094 L 156.652344 97.070312 L 149.589844 97.070312 Z M 149.589844 209.925781 L 135.480469 209.925781 L 135.480469 216.988281 L 156.652344 216.988281 L 156.652344 209.925781 Z M 149.589844 287.523438 L 156.652344 287.523438 L 156.652344 280.46875 L 149.589844 280.46875 Z M 156.652344 301.628906 L 156.652344 294.578125 L 149.589844 294.578125 L 149.589844 301.628906 Z M 163.699219 90.019531 L 156.652344 90.019531 L 156.652344 97.070312 L 163.699219 97.070312 Z M 163.699219 202.878906 L 156.652344 202.878906 L 156.652344 209.925781 L 163.699219 209.925781 Z M 156.652344 280.46875 L 163.699219 280.46875 L 163.699219 273.417969 L 156.652344 273.417969 Z M 163.699219 308.6875 L 163.699219 301.628906 L 156.652344 301.628906 L 156.652344 308.6875 Z M 170.753906 82.960938 L 163.699219 82.960938 L 163.699219 90.019531 L 170.753906 90.019531 Z M 177.808594 224.039062 L 177.808594 216.988281 L 156.652344 216.988281 L 156.652344 224.039062 Z M 170.753906 245.199219 L 177.808594 245.199219 L 177.808594 238.148438 L 170.753906 238.148438 Z M 170.753906 273.417969 L 170.753906 280.46875 L 177.808594 280.46875 L 177.808594 273.417969 Z M 177.808594 287.523438 L 184.863281 287.523438 L 184.863281 280.46875 L 177.808594 280.46875 Z M 184.863281 252.257812 L 191.917969 252.257812 L 191.917969 245.199219 L 184.863281 245.199219 Z M 213.078125 266.367188 L 213.078125 259.308594 L 198.96875 259.308594 L 198.96875 266.367188 Z M 206.019531 315.734375 L 206.019531 322.796875 L 213.078125 322.796875 L 213.078125 315.734375 Z M 213.078125 329.84375 L 220.128906 329.84375 L 220.128906 322.796875 L 213.078125 322.796875 Z M 220.128906 216.988281 L 227.1875 216.988281 L 227.1875 209.925781 L 220.128906 209.925781 Z M 220.128906 280.46875 L 227.1875 280.46875 L 227.1875 273.417969 L 220.128906 273.417969 Z M 241.289062 97.070312 L 234.238281 97.070312 L 234.238281 104.121094 L 241.289062 104.121094 Z M 241.289062 125.289062 L 241.289062 118.230469 L 227.1875 118.230469 L 227.1875 111.175781 L 234.238281 111.175781 L 234.238281 104.121094 L 220.128906 104.121094 L 220.128906 111.175781 L 213.078125 111.175781 L 213.078125 118.230469 L 206.019531 118.230469 L 206.019531 125.289062 L 198.96875 125.289062 L 198.96875 132.339844 L 213.078125 132.339844 L 213.078125 125.289062 Z M 234.238281 202.878906 L 241.289062 202.878906 L 241.289062 195.828125 L 234.238281 195.828125 Z M 248.347656 90.019531 L 241.289062 90.019531 L 241.289062 97.070312 L 248.347656 97.070312 Z M 248.347656 174.660156 L 241.289062 174.660156 L 241.289062 181.71875 L 248.347656 181.71875 Z M 248.347656 167.605469 L 262.460938 167.605469 L 262.460938 160.558594 L 248.347656 160.558594 Z M 255.398438 202.878906 L 248.347656 202.878906 L 248.347656 209.925781 L 255.398438 209.925781 Z M 255.398438 280.46875 L 262.460938 280.46875 L 262.460938 273.417969 L 255.398438 273.417969 Z M 262.460938 181.71875 L 269.507812 181.71875 L 269.507812 174.660156 L 262.460938 174.660156 Z M 276.558594 160.558594 L 269.507812 160.558594 L 269.507812 167.605469 L 276.558594 167.605469 Z M 276.558594 181.71875 L 283.617188 181.71875 L 283.617188 174.660156 L 276.558594 174.660156 Z M 283.617188 167.605469 L 290.671875 167.605469 L 290.671875 160.558594 L 283.617188 160.558594 Z M 290.671875 146.449219 L 297.71875 146.449219 L 297.71875 139.390625 L 290.671875 139.390625 Z M 304.78125 75.910156 L 304.78125 68.855469 L 297.71875 68.855469 L 297.71875 82.960938 L 304.78125 82.960938 Z M 304.78125 104.121094 L 297.71875 104.121094 L 297.71875 111.175781 L 304.78125 111.175781 Z M 311.828125 61.800781 L 304.78125 61.800781 L 304.78125 68.855469 L 311.828125 68.855469 Z M 304.78125 146.449219 L 311.828125 146.449219 L 311.828125 139.390625 L 304.78125 139.390625 Z M 311.828125 97.070312 L 311.828125 104.121094 L 325.9375 104.121094 L 325.9375 97.070312 Z M 318.886719 54.75 L 325.9375 54.75 L 325.9375 47.691406 L 318.886719 47.691406 Z M 332.992188 47.691406 L 332.992188 54.75 L 340.046875 54.75 L 340.046875 47.691406 Z M 332.992188 97.070312 L 340.046875 97.070312 L 340.046875 104.121094 L 332.992188 104.121094 L 332.992188 97.070312 " fill-opacity="1" fill-rule="nonzero"/></g><g clip-path="url(#da59dfd2bd)"><path fill="#ffffff" d="M 43.785156 181.71875 L 29.683594 181.71875 L 29.683594 188.769531 L 22.625 188.769531 L 22.625 195.828125 L 15.574219 195.828125 L 15.574219 202.878906 L 43.785156 202.878906 L 43.785156 209.925781 L 50.839844 209.925781 L 50.839844 188.769531 L 43.785156 188.769531 Z M 93.160156 181.71875 L 93.160156 188.769531 L 107.269531 188.769531 L 107.269531 181.71875 Z M 107.269531 181.71875 L 114.324219 181.71875 L 114.324219 174.660156 L 107.269531 174.660156 Z M 128.433594 167.605469 L 135.480469 167.605469 L 135.480469 160.558594 L 128.433594 160.558594 Z M 142.542969 153.496094 L 142.542969 160.558594 L 135.480469 160.558594 L 135.480469 153.496094 L 142.542969 153.496094 " fill-opacity="1" fill-rule="nonzero"/></g></svg>